<?xml version="1.0" encoding="UTF-8"?>
<svg version="1.1" viewBox="0 0 793.7 793.7" xmlns="http://www.w3.org/2000/svg">
<g transform="scale(3.7795)">
<rect width="210" height="210" stroke-width="2.4087"/>
<path transform="scale(.26459)" d="m261.78 688.39c-33.317-3.1728-57.277-11.562-69.788-24.435-7.7806-8.0056-15.09-23.147-18.804-38.953-2.6142-11.125-3.0072-18.82-4.0429-79.161-0.63097-36.761-1.7746-70.359-2.5414-74.663-4.5363-25.462-12.696-39.367-27.289-46.507-12.73-6.2283-21.036-7.8212-44.977-8.6258l-22.627-0.76038v-43.841l23.324-0.72141c47.001-1.4537 63.007-12.851 70.862-50.459 1.5331-7.3395 2.2013-24.709 2.7051-70.319 0.69041-62.505 1.5717-75.644 6.2395-93.029 7.3036-27.202 20.494-41.359 46.133-49.517 18.599-5.9177 34.321-8.0191 66.219-8.8508l29.59-0.77153v43.167l-22.627 0.73954c-36.47 1.192-52.498 6.5896-59.888 20.167-7.7572 14.252-8.223 18.885-9.4173 93.665-0.65105 40.765-1.7286 71.771-2.6375 75.889-7.176 32.512-20.279 48.375-47.84 57.918-6.0391 2.0912-11.268 4.0898-11.62 4.4415s2.2699 1.3719 5.8256 2.2673c20.447 5.1486 40.262 21.125 46.881 37.798 7.8052 19.662 8.2683 24.468 9.4502 98.088 0.60249 37.527 1.7357 71.059 2.5183 74.516 0.78259 3.4569 2.7535 9.8418 4.3799 14.189 6.7734 18.104 24.026 24.781 64.029 24.781h20.946v44.559l-21.235-0.18819c-11.679-0.10346-26.874-0.72522-33.767-1.3816z" fill="#fff" stroke-width="12.811"/>
<path transform="scale(.26459)" d="m478.31 667.89v-22.486h21.461c41.787 0 58.295-6.6086 65.322-26.15 4.618-12.842 5.2944-22.286 6.4539-90.12 1.2865-75.258 1.7328-79.456 10.362-97.472 7.7697-16.222 20.985-27.109 41.546-34.229 6.2526-2.1651 10.46-4.2297 9.3487-4.5881-1.1108-0.35836-5.466-1.7267-9.6782-3.0409-11.789-3.678-19.787-8.1666-28.118-15.78-9.2757-8.4775-15.406-19.584-19.375-35.102-2.7723-10.839-3.0705-16.733-4.078-80.62-0.83788-53.129-1.5659-71.021-3.1763-78.067-6.8851-30.121-18.408-36.833-66.048-38.475l-24.02-0.82793v-43.149l30.286 0.76526c77.483 1.9578 103.7 17.336 114.6 67.229 2.7695 12.67 3.1191 19.607 4.1014 81.385 1.1598 72.943 1.6782 78.273 9.1475 94.062 10.005 21.148 30.284 29.867 69.47 29.867h18.857v44.559h-17.979c-47.068 0-66.35 11.664-75.608 45.736-2.6628 9.7996-2.9816 16.097-3.9582 78.192-1.0942 69.568-1.8061 78.532-7.6562 96.401-12.617 38.54-39.953 51.577-112.37 53.593l-28.893 0.80408z" fill="#fff" stroke-width="12.811"/>
</g>
</svg>