<?xml version="1.0" encoding="UTF-8" standalone="no"?>
<svg
   width="200"
   height="200"
   version="1.1"
   viewBox="0 0 52.916666 52.916666"
   xmlnsCc="http://creativecommons.org/ns#"
   xmlnsDc="http://purl.org/dc/elements/1.1/"
   xmlnsRdf="http://www.w3.org/1999/02/22-rdf-syntax-ns#"
   xmlnsXlink="http://www.w3.org/1999/xlink"
   id="svg17"
   sodipodi:docname="sols_logo_2.svg"
   inkscape:version="1.1.1 (3bf5ae0, 2021-09-20)"
   xmlns:inkscape="http://www.inkscape.org/namespaces/inkscape"
   xmlns:sodipodi="http://sodipodi.sourceforge.net/DTD/sodipodi-0.dtd"
   xmlns:xlink="http://www.w3.org/1999/xlink"
   xmlns="http://www.w3.org/2000/svg"
   xmlns:svg="http://www.w3.org/2000/svg">
  <sodipodi:namedview
     id="namedview19"
     pagecolor="#ffffff"
     bordercolor="#666666"
     borderopacity="1.0"
     inkscape:pageshadow="2"
     inkscape:pageopacity="0.0"
     inkscape:pagecheckerboard="0"
     showgrid="false"
     inkscape:zoom="2.815"
     inkscape:cx="64.120782"
     inkscape:cy="100"
     inkscape:window-width="1360"
     inkscape:window-height="743"
     inkscape:window-x="0"
     inkscape:window-y="0"
     inkscape:window-maximized="1"
     inkscape:current-layer="svg17" />
  <defs
     id="defs5">
    <linearGradient
       inkscape:collect="always"
       id="linearGradient1374">
      <stop
         style="stop-color:#2a7fff;stop-opacity:1;"
         offset="0"
         id="stop1370" />
      <stop
         style="stop-color:#2a7fff;stop-opacity:0.50980392;"
         offset="0.68622273"
         id="stop2016" />
      <stop
         style="stop-color:#2a7fff;stop-opacity:0.50196078;"
         offset="0.81249189"
         id="stop2018" />
      <stop
         style="stop-color:#2a7fff;stop-opacity:0;"
         offset="1"
         id="stop1372" />
    </linearGradient>
    <filter
       id="a"
       x="-0.023245382"
       y="-0.024805366"
       width="1.0464908"
       height="1.0496107"
       color-interpolation-filters="sRGB">
      <feGaussianBlur
         stdDeviation="0.45799253"
         id="feGaussianBlur2" />
    </filter>
    <radialGradient
       inkscape:collect="always"
       xlink:href="#linearGradient1374"
       id="radialGradient2562"
       cx="26.19467"
       cy="26.192307"
       fx="26.19467"
       fy="26.192307"
       r="23.100963"
       gradientTransform="matrix(1,0,0,0.99989795,0,0.00267296)"
       gradientUnits="userSpaceOnUse" />
  </defs>
  <metadata
     id="metadata7">
    <rdfRDF>
      <ccWork
         rdfAbout="">
        <dcFormat>image/svg+xml</dcFormat>
        <dcType
           rdfResource="http://purl.org/dc/dcmitype/StillImage" />
        <dcTitle />
      </ccWork>
    </rdfRDF>
  </metadata>
  <ellipse
     style="fill:#0b0b28;fill-opacity:1;stroke:#ffffff;stroke-width:1.32292;stroke-miterlimit:4;stroke-dasharray:none;stroke-opacity:1"
     id="path43-2"
     cx="26.194738"
     cy="26.192381"
     inkscape:export-filename="/home/juan/Pictures/design/solution.png"
     inkscape:export-xdpi="217.68707"
     inkscape:export-ydpi="217.68707"
     rx="22.439505"
     ry="22.437147" />
  <ellipse
     style="fill:url(#radialGradient2562);stroke:#ffffff;stroke-width:1.32291665;stroke-miterlimit:4;stroke-dasharray:none;stroke-opacity:1;fill-opacity:1"
     id="path43"
     cx="26.19467"
     cy="26.192307"
     inkscape:export-filename="/home/juan/Pictures/design/solution.png"
     inkscape:export-xdpi="217.68707"
     inkscape:export-ydpi="217.68707"
     rx="22.439505"
     ry="22.437147" />
  <g
     transform="matrix(0.92403488,0,0,0.80964947,1.9060803,-192.6143)"
     id="g15"
     inkscape:export-filename="/home/juan/Pictures/design/solution.png"
     inkscape:export-xdpi="217.68707"
     inkscape:export-ydpi="217.68707">
    <path
       d="m 13.432978,248.72833 c -1.392855,0.003 -1.598275,0.18837 -2.326955,0.54517 -1.4787371,0.72405 -2.5710821,2.39974 -3.0704511,4.71085 -0.180414,0.83469 -0.212981,1.39166 -0.282148,4.77222 -0.08411,4.11052 -0.182237,5.13206 -0.628906,6.55815 -0.695211,2.21988 -1.825708,3.25751 -3.645648,3.34588 l -0.826813,0.0403 v 3.35223 l 0.808715,0.0506 c 1.503926,0.0938 2.547297,0.85194 3.255657,2.36674 0.786782,1.68273 0.942514,2.8154 1.041784,7.57837 0.08223,3.94462 0.144331,4.58676 0.57308,5.89987 0.619276,1.89643 1.8389901,3.28423 3.3434981,3.80439 v 5.3e-4 c 0.363983,0.12589 0.796624,0.16492 1.867564,0.16692 2.413806,0.071 2.036754,-2.93639 0.468704,-2.9259 -1.921962,0 -2.793171,-0.4881 -3.422607,-1.91614 -0.434044,-0.98482 -0.487727,-1.51827 -0.565328,-5.64349 -0.07751,-4.11925 -0.1511571,-4.90796 -0.5834261,-6.23668 -0.246975,-0.75919 -0.746697,-1.76994 -1.214369,-2.45668 -0.376074,-0.55226 -1.438019,-1.64011 -1.837587,-1.88254 -0.171536,-0.10409 -0.239776,-0.22676 -0.239776,-0.43097 0,-0.23841 0.112063,-0.37851 0.679547,-0.85214 1.144494,-0.95521 2.06592,-2.32907 2.566744,-3.82662 0.479101,-1.43262 0.547866,-2.1296 0.6268161,-6.37823 0.06685,-3.59776 0.0927,-4.04304 0.275957,-4.76297 0.252087,-0.9904 0.59258,-1.62534 1.12137,-2.09079 1.174444,-1.00739 2.347327,-1.23881 3.88959,-0.22375 1.987472,1.70831 2.333384,2.79158 4.880707,4.6992 -3.518649,12.57867 16.09255,9.65347 10.059597,26.03917 -4.706879,-5.72842 -11.179828,-7.20028 -13.7362,-0.97683 -2.969911,9.8654 8.906027,15.16943 15.478194,7.37993 2.883129,1.69631 5.260644,3.49722 8.960796,2.31865 v -5.3e-4 c 1.504428,-0.52022 2.724115,-1.90794 3.343497,-3.80439 0.428752,-1.31301 0.491378,-1.95512 0.57361,-5.89987 0.09928,-4.76271 0.254478,-5.89564 1.041281,-7.57837 0.70828,-1.5148 1.751652,-2.27293 3.255657,-2.36675 l 0.809244,-0.0506 v -3.35213 l -0.826813,-0.0403 c -1.820019,-0.0885 -2.951125,-1.12611 -3.646177,-3.34588 -0.446664,-1.42625 -0.544267,-2.44763 -0.628377,-6.55815 -0.06917,-3.38054 -0.102252,-3.93748 -0.282677,-4.77223 -0.499501,-2.31102 -1.591819,-3.98669 -3.070451,-4.71084 -0.72868,-0.35682 -1.184737,-0.4341 -2.577592,-0.43667 -2.501983,-0.0606 -2.226768,2.89556 -0.141074,2.95796 1.310756,0.0705 1.850314,0.23236 2.407043,0.72244 0.52879,0.46548 0.869278,1.10039 1.12137,2.09079 0.183248,0.71995 0.209097,1.16529 0.275957,4.76297 0.07895,4.24862 0.147207,4.94579 0.626314,6.37823 0.500823,1.49752 1.422752,2.87149 2.567246,3.82662 0.567471,0.47362 0.679018,0.61372 0.679018,0.85213 0,0.20422 -0.06824,0.32689 -0.239776,0.43098 -0.399568,0.24244 -1.461513,1.33028 -1.837587,1.88254 -0.467672,0.68674 -0.967411,1.69746 -1.214369,2.45667 -0.432271,1.32878 -0.505904,2.11762 -0.583426,6.23668 -0.07762,4.12534 -0.131277,4.65873 -0.565328,5.6435 -3.112519,3.67078 -6.255994,0.43047 -7.701659,-0.76202 8.657322,-18.81825 -10.209349,-21.39447 -9.913548,-27.29143 4.92595,2.54082 11.369267,2.21861 10.881911,-4.57009 -0.517757,-2.99002 -2.474347,-4.05876 -4.351357,-4.61808 -4.669837,-1.22353 -7.956111,1.24924 -9.820077,4.85832 -2.059147,-1.28509 -2.711416,-2.44895 -3.95309,-3.64062 -0.963759,-0.92484 -1.625976,-1.50533 -2.388443,-1.90064 -0.390229,-0.2637 -0.747783,-0.3425 -1.357534,-0.42631 z m 15.502271,3.57236 c 1.485564,0.053 3.1276,1.06874 3.212001,2.64345 -0.242715,4.55448 -4.431715,3.7782 -7.559315,1.69296 0.189368,-1.52744 0.804112,-2.76221 2.150454,-3.8155 0.734394,-0.53493 1.521493,-0.54501 2.196728,-0.52091 z m -6.408127,29.7335 c 1.326339,-0.15914 2.705859,0.2151 5.959664,4.40076 -5.727628,8.35914 -11.252852,-2.87413 -5.959664,-4.40076 z"
       fill="#0055d4"
       stroke="#ffeaff"
       stroke-miterlimit="6.6667"
       stroke-width="0.52916"
       id="path11"
       style="fill:#ffffff;stroke:none"
       inkscape:export-filename="/home/juan/Pictures/design/solution.png"
       inkscape:export-xdpi="217.68707"
       inkscape:export-ydpi="217.68707"
       sodipodi:nodetypes="cccccccccccccccccccccssccccccccccccsscccccsscccsssccsccccccccccccccscccssccc" />
  </g>
</svg>
