<?xml version="1.0" encoding="UTF-8"?>
<svg width="200" height="200" version="1.1" viewBox="0 0 52.917 52.917" xmlns="http://www.w3.org/2000/svg" xmlnsCc="http://creativecommons.org/ns#" xmlnsDc="http://purl.org/dc/elements/1.1/" xmlnsRdf="http://www.w3.org/1999/02/22-rdf-syntax-ns#" xmlnsXlink="http://www.w3.org/1999/xlink">
<metadata>
<rdfRDF>
<ccWork rdfAbout="">
<dcFormat>image/svg+xml</dcFormat>
<dcType rdfResource="http://purl.org/dc/dcmitype/StillImage"/>
<dcTitle/>
</ccWork>
</rdfRDF>
</metadata>
<circle cx="26.53" cy="26.557" r="29.104" stroke="#000" stroke-width=".13229"/>
<g transform="translate(0 -244.08)">
<path d="m13.433 248.73c-1.3929 3e-3 -1.5983 0.18837-2.327 0.54517-1.4787 0.72405-2.5711 2.3997-3.0705 4.7108-0.18041 0.83469-0.21298 1.3917-0.28215 4.7722-0.08411 4.1105-0.18224 5.1321-0.62891 6.5582-0.69521 2.2199-1.8257 3.2575-3.6456 3.3459l-0.82681 0.0403v3.3522l0.80872 0.0506c1.5039 0.0938 2.5473 0.85194 3.2557 2.3667 0.78678 1.6827 0.94251 2.8154 1.0418 7.5784 0.08223 3.9446 0.14433 4.5868 0.57308 5.8999 0.61928 1.8964 1.839 3.2842 3.3435 3.8044v5.3e-4c0.36398 0.12589 0.79662 0.16492 1.8676 0.16692l1.3937 3e-3v-2.9289h-0.925c-1.922 0-2.7932-0.4881-3.4226-1.9161-0.43404-0.98482-0.48773-1.5183-0.56533-5.6435-0.07751-4.1192-0.15116-4.908-0.58343-6.2367-0.24698-0.75919-0.7467-1.7699-1.2144-2.4567-0.37607-0.55226-1.438-1.6401-1.8376-1.8825-0.17154-0.10409-0.23978-0.22676-0.23978-0.43097 0-0.23841 0.11206-0.37851 0.67955-0.85214 1.1445-0.95521 2.0659-2.3291 2.5667-3.8266 0.4791-1.4326 0.54787-2.1296 0.62682-6.3782 0.06685-3.5978 0.0927-4.043 0.27596-4.763 0.25209-0.9904 0.59258-1.6253 1.1214-2.0908 1.1744-1.0074 2.3473-1.2388 3.8896-0.22375 1.9875 1.7083 2.3334 2.7916 4.8807 4.6992-3.5186 12.579 16.093 9.6535 10.06 26.039-4.7069-5.7284-11.18-7.2003-13.736-0.97683-2.9699 9.8654 8.906 15.169 15.478 7.3799 2.8831 1.6963 5.2606 3.4972 8.9608 2.3186v-5.3e-4c1.5044-0.52022 2.7241-1.9079 3.3435-3.8044 0.42875-1.313 0.49138-1.9551 0.57361-5.8999 0.09928-4.7627 0.25448-5.8956 1.0413-7.5784 0.70828-1.5148 1.7517-2.2729 3.2557-2.3668l0.80924-0.0506v-3.3521l-0.82681-0.0403c-1.82-0.0885-2.9511-1.1261-3.6462-3.3459-0.44666-1.4262-0.54427-2.4476-0.62838-6.5582-0.06917-3.3805-0.10225-3.9375-0.28268-4.7722-0.4995-2.311-1.5918-3.9867-3.0705-4.7108-0.72868-0.35682-1.1847-0.4341-2.5776-0.43667l-1.2521-2e-3v2.9001l1.111 0.0599c1.3108 0.0705 1.8503 0.23236 2.407 0.72244 0.52879 0.46548 0.86928 1.1004 1.1214 2.0908 0.18325 0.71995 0.2091 1.1653 0.27596 4.763 0.07895 4.2486 0.14721 4.9458 0.62631 6.3782 0.50082 1.4975 1.4228 2.8715 2.5672 3.8266 0.56747 0.47362 0.67902 0.61372 0.67902 0.85213 0 0.20422-0.06824 0.32689-0.23978 0.43098-0.39957 0.24244-1.4615 1.3303-1.8376 1.8825-0.46767 0.68674-0.96741 1.6975-1.2144 2.4567-0.43227 1.3288-0.5059 2.1176-0.58343 6.2367-0.07762 4.1253-0.13128 4.6587-0.56533 5.6435-3.1125 3.6708-6.256 0.43047-7.7017-0.76202 8.6573-18.818-10.209-21.394-9.9135-27.291 4.926 2.5408 11.369 2.2186 10.882-4.5701-0.51776-2.99-2.1975-3.8041-4.0745-4.3634-4.6698-1.2235-8.2329 0.99461-10.097 4.6037-2.0591-1.2851-2.7114-2.449-3.9531-3.6406-0.96376-0.92484-1.626-1.5053-2.3884-1.9006-0.39023-0.2637-0.74778-0.3425-1.3575-0.42631zm15.502 3.5724c1.4856 0.053 3.1276 1.0687 3.212 2.6434-0.24272 4.5545-4.4317 3.7782-7.5593 1.693 0.18937-1.5274 0.80411-2.7622 2.1505-3.8155 0.73439-0.53493 1.5215-0.54501 2.1967-0.52091zm-6.4081 29.734c1.3263-0.15914 2.7059 0.2151 5.9597 4.4008-5.7276 8.3591-11.253-2.8741-5.9597-4.4008z" fill="#fff" stroke="#ffeaff" stroke-miterlimit="6.6667" stroke-width=".52916"/>
</g>
</svg>
