<?xml version="1.0" encoding="UTF-8"?>
<svg version="1.1" viewBox="0 0 793.7 793.7" xmlns="http://www.w3.org/2000/svg">
<g transform="scale(3.7795)">
<rect width="210" height="210" stroke-width="2.4087"/>
<path d="m46.02 71.239c18.179-18.344 34.394-25.394 50.262-30.446l11.266 12.64 10.711-12.479c22.047 5.7921 34.911 17.908 49.769 30.169l-43.112 1.2291 0.21416 20.391 6.3593 6.5597-6.2332 5.72 6.4618 6.6925-6.32 5.5612 5.5025 6.9454-6.0948 6.2104 5.8725 6.493-5.7078 6.327 5.0228 6.9076-20.283 29.814-23.84-29.571 5.0755-7.4061-5.3157-6.3384 5.7724-6.2934-6.7366-6.4202 6.1485-6.297-7.0452-4.9756 6.6181-7.0444-7.0733-5.5991 7.0564-6.2493-0.12341-22.147z" fill="#fff" stroke="#000" stroke-width=".26458px"/>
</g>
</svg>