<?xml version="1.0" encoding="UTF-8"?>
<svg version="1.1" viewBox="0 0 900 254" xmlns="http://www.w3.org/2000/svg">
<defs>
<filter id="a" x="-.0095931" y="-.036593" width="1.0192" height="1.0732" color-interpolation-filters="sRGB">
<feGaussianBlur result="fbSourceGraphic" stdDeviation="1.5974163"/>
<feColorMatrix in="fbSourceGraphic" result="fbSourceGraphicAlpha" values="0 0 0 -1 0 0 0 0 -1 0 0 0 0 -1 0 0 0 0 1 0"/>
<feGaussianBlur in="fbSourceGraphic" result="blur" stdDeviation="2 2"/>
</filter>
</defs>

<path d="m0.0034949 98.745 21.5-14.8c21.5-14.9 64.5-44.5 107.3-56 42.9-11.5 85.5-4.9 128.4-0.9 42.8 4 85.8 5.4 128.6 1.4 42.9-4 85.5-13.4 128.4-5.7 42.8 7.7 85.8 32.3 128.6 40.2 42.9 7.8 85.5-1.2 128.4 0.8 42.8 2 85.8 15 107.3 21.5l21.5 6.5v164h-21.5-107.3-128.4-128.6-128.4-128.6-128.4-107.3-21.5z" fill="#0d0251"/>
<path d="m0.0034949 52.745 21.5-0.5c21.5-0.5 64.5-1.5 107.3 11 42.9 12.5 85.5 38.5 128.4 46.5 42.8 8 85.8-2 128.6-12 42.9-10 85.5-20 128.4-19.7 42.8 0.4 85.8 11 128.6 13 42.9 2 85.5-4.6 128.4-8.6 47.237-5.4188 69.522-23.495 128.8-29.7v203h-900z" fill="#170c6b"/>
<path d="m0.0034949 126.75 21.5-2c21.5-2 64.5-6 107.3-11.5 42.9-5.5 85.5-12.5 128.4-4.3 42.8 8.1 85.8 31.5 128.6 31.5 42.9 0 85.5-23.4 128.4-33.5 42.8-10.2 85.8-7.2 128.6-6.7 42.9 0.5 85.5-1.5 128.4 5.5 45.355 2.5087 72.857 23.33 128.8 21v129h-900z" fill="#211887"/>
<path d="m0.0034949 136.75 21.5 9.8c21.5 9.9 64.5 29.5 107.3 30.7 42.9 1.2 85.5-16.2 128.4-25.5 42.8-9.3 85.8-10.7 128.6-3.8 42.9 6.8 85.5 21.8 128.4 28.6 42.8 6.9 85.8 5.5 128.6 1.4 42.9-4.2 85.5-11.2 128.4-11.9 49.097-8.9305 97.095-41.271 128.8-29.3v119h-900z" fill="#2a24a4"/>
<path d="m0.0034949 205.75 21.5 2.7c21.5 2.6 64.5 8 107.3 9.3 42.9 1.3 85.5-1.3 128.4-0.3 42.8 1 85.8 5.6 128.6 0.3 42.9-5.3 85.5-20.7 128.4-24.3 42.8-3.7 85.8 4.3 128.6 6.5 42.9 2.1 85.5-1.5 128.4 1.1 44.804-0.86951 86.285-3.8467 128.8 4.7v50h-900z" fill="#3131c2"/>
</svg>